# xmcd
#
# Track frame offsets: 
#        300
#        17583
#        41983
#
# Disc length: 791 seconds
#
# Revision: 0
# Processed by: cddbd v1.5.2PL0 Copyright (c) Steve Scherf et al.
# Submitted via: ExactAudioCopy v0.99pb5
#
DISCID=20031303
DTITLE=The Weather Girls - Wild Thang
DYEAR=2004
DGENRE=house
TTITLE0=Wild Thang (Radio Edit)
TTITLE1=Wild Thang (Extended Edit)
TTITLE2=Wild Thang (Karaoke Version)
EXTD=
EXTT0=
EXTT1=
EXTT2=
PLAYORDER=
